<svg xmlns="http://www.w3.org/2000/svg" version="1.1" xmlns:xlink="http://www.w3.org/1999/xlink" xmlns:svgjs="http://svgjs.com/svgjs" width="512" height="512" x="0" y="0" viewBox="0 0 32 32" style="enable-background:new 0 0 512 512" xml:space="preserve" class=""><g transform="matrix(1.1,0,0,1.1,-1.6000000000000014,-1.6000000000000014)"><script id="youtube-hd-fjdmkanbdloodhegphphhklnjfngoffa">var ythdlog = () =&gt; {};;var ythderror = () =&gt; {};</script><path xmlns="http://www.w3.org/2000/svg" d="M27,6.25H21.75V5A2.75,2.75,0,0,0,19,2.25H13A2.75,2.75,0,0,0,10.25,5V6.25H5a.75.75,0,0,0,0,1.5h.53L7.1,27.22a2.77,2.77,0,0,0,2.74,2.53H22.16a2.77,2.77,0,0,0,2.74-2.53L26.47,7.75H27a.75.75,0,0,0,0-1.5ZM11.75,5A1.25,1.25,0,0,1,13,3.75h6A1.25,1.25,0,0,1,20.25,5V6.25h-8.5ZM23.4,27.1a1.26,1.26,0,0,1-1.25,1.15H9.84A1.26,1.26,0,0,1,8.6,27.1L7,7.75H25ZM20.75,13V23a.75.75,0,0,1-1.5,0V13a.75.75,0,0,1,1.5,0Zm-4,0V23a.75.75,0,0,1-1.5,0V13a.75.75,0,0,1,1.5,0Zm-4,0V23a.75.75,0,0,1-1.5,0V13a.75.75,0,0,1,1.5,0Z" fill="#e6e6e6" data-original="#000000" class=""></path></g></svg>